<?xml version="1.0" encoding="UTF-8"?>
<svg width="1130px" height="319px" viewBox="0 0 1130 319" version="1.1" xmlns="http://www.w3.org/2000/svg" xmlns:xlink="http://www.w3.org/1999/xlink">
    <!-- Generator: Sketch 41.2 (35397) - http://www.bohemiancoding.com/sketch -->
    <title>流程图</title>
    <desc>Created with Sketch.</desc>
    <defs>
        <linearGradient x1="50%" y1="0%" x2="50%" y2="100%" id="linearGradient-1">
            <stop stop-color="#F9FAFB" offset="0%"></stop>
            <stop stop-color="#F0F3F6" offset="100%"></stop>
        </linearGradient>
        <rect id="path-2" x="0" y="0" width="196" height="41" rx="4.2"></rect>
        <mask id="mask-3" maskContentUnits="userSpaceOnUse" maskUnits="objectBoundingBox" x="0" y="0" width="196" height="41" fill="white">
            <use xlink:href="#path-2"></use>
        </mask>
        <rect id="path-4" x="0" y="0" width="196" height="41" rx="4.2"></rect>
        <mask id="mask-5" maskContentUnits="userSpaceOnUse" maskUnits="objectBoundingBox" x="0" y="0" width="196" height="41" fill="white">
            <use xlink:href="#path-4"></use>
        </mask>
        <path d="M0,11.7148438 C0,5.2453125 5.24453125,0 11.7148438,0 L38.2851562,0 C44.7546875,0 50,5.24453125 50,11.7148438 L50,38.2851562 C50,44.7554687 44.7554687,50 38.2851562,50 L11.7148438,50 C5.2453125,50 0,44.7554687 0,38.2851562 L0,11.7148438 L0,11.7148438 Z" id="path-6"></path>
        <path d="M0,11.7148438 C0,5.2453125 5.24453125,0 11.7148438,0 L38.2851562,0 C44.7546875,0 50,5.24453125 50,11.7148438 L50,38.2851562 C50,44.7554687 44.7554687,50 38.2851562,50 L11.7148438,50 C5.2453125,50 0,44.7554687 0,38.2851562 L0,11.7148438 L0,11.7148438 Z" id="path-8"></path>
        <path d="M0,11.7148438 C0,5.2453125 5.24453125,0 11.7148438,0 L38.2851562,0 C44.7546875,0 50,5.24453125 50,11.7148438 L50,38.2851562 C50,44.7554687 44.7554687,50 38.2851562,50 L11.7148438,50 C5.2453125,50 0,44.7554687 0,38.2851562 L0,11.7148438 L0,11.7148438 Z" id="path-10"></path>
        <path d="M0,11.7148438 C0,5.2453125 5.24453125,0 11.7148438,0 L38.2851562,0 C44.7546875,0 50,5.24453125 50,11.7148438 L50,38.2851562 C50,44.7554687 44.7554687,50 38.2851562,50 L11.7148438,50 C5.2453125,50 0,44.7554687 0,38.2851562 L0,11.7148438 L0,11.7148438 Z" id="path-12"></path>
    </defs>
    <g id="Page-1" stroke="none" stroke-width="1" fill="none" fill-rule="evenodd">
        <g id="流程图">
            <path d="M95,183.972656 L119.558084,183.972656 C130.601903,183.972656 139.554688,175.021732 139.554688,163.980185 L139.554688,112.992471 C139.554688,101.950934 148.510163,93 159.554136,93 L189.566153,93" id="Line" stroke="#979797" stroke-width="2" stroke-linecap="square"></path>
            <path d="M95,274.972656 L119.558084,274.972656 C130.601903,274.972656 139.554688,266.021732 139.554687,254.980185 L139.554687,203.992471 C139.554687,192.950934 148.506672,184 159.55884,184 L463.987931,184" id="Line" stroke="#979797" stroke-width="2" stroke-linecap="square" transform="translate(279.493965, 229.486328) scale(1, -1) translate(-279.493965, -229.486328) "></path>
            <text id="正则表达式直接解析" font-family="PingFangSC-Regular, PingFang SC" font-size="18" font-weight="normal" fill="#2C2C2C">
                <tspan x="219.5" y="261">正则表达式直接解析</tspan>
            </text>
            <text id="插件内置样式注入器-加载样式到E站" font-family="PingFangSC-Regular, PingFang SC" font-size="18" font-weight="normal" fill="#2C2C2C">
                <tspan x="950" y="265">插件内置样式注入器</tspan>
                <tspan x="950" y="290">加载样式到E站</tspan>
            </text>
            <g id="wiki" transform="translate(23.000000, 159.000000)" fill="#000000">
                <path d="M8.3908046,12.5 L25.1724138,12.5 L25.1724138,16.6666667 L8.3908046,16.6666667 L8.3908046,12.5 Z M8.3908046,25 L25.1724138,25 L25.1724138,20.8333333 L8.3908046,20.8333333 L8.3908046,25 Z M8.3908046,33.3333333 L25.1724138,33.3333333 L25.1724138,29.1666667 L8.3908046,29.1666667 L8.3908046,33.3333333 Z M54.5402299,12.5 L37.7586207,12.5 L37.7586207,16.6666667 L54.5402299,16.6666667 L54.5402299,12.5 Z M54.5402299,20.8333333 L37.7586207,20.8333333 L37.7586207,25 L54.5402299,25 L54.5402299,20.8333333 Z M54.5402299,29.1666667 L37.7586207,29.1666667 L37.7586207,33.3333333 L54.5402299,33.3333333 L54.5402299,29.1666667 Z M62.9310345,4.16666667 L62.9310345,41.6666667 C62.9310345,43.9583333 61.0431034,45.8333333 58.7356322,45.8333333 L35.6609195,45.8333333 L31.4655172,50 L27.2701149,45.8333333 L4.1954023,45.8333333 C1.88793103,45.8333333 0,43.9583333 0,41.6666667 L0,4.16666667 C0,1.875 1.88793103,0 4.1954023,0 L27.2701149,0 L31.4655172,4.16666667 L35.6609195,0 L58.7356322,0 C61.0431034,0 62.9310345,1.875 62.9310345,4.16666667 Z M29.3678161,6.25 L27.2701149,4.16666667 L4.1954023,4.16666667 L4.1954023,41.6666667 L29.3678161,41.6666667 L29.3678161,6.25 Z M58.7356322,4.16666667 L35.6609195,4.16666667 L33.5632184,6.25 L33.5632184,41.6666667 L58.7356322,41.6666667 L58.7356322,4.16666667 Z" id="Shape"></path>
            </g>
            <g id="Group-2" transform="translate(200.000000, 68.000000)" fill="#000000">
                <path d="M0,25.6683995 C0,36.8755526 7.18158995,46.405194 17.193375,49.905462 C18.5422763,50.2482696 18.3327038,49.2808132 18.3327038,48.6306499 L18.3327038,44.181081 C10.5480693,45.0920832 10.2361812,39.9380454 9.71063879,39.0757088 C8.65079932,37.2708932 6.15870227,36.8125452 6.9034311,35.9531092 C8.67942621,35.0363595 10.4840482,36.18231 12.5751003,39.2762797 C14.0907679,41.5188705 17.0360077,41.1426524 18.5422763,40.765736 C18.871405,39.4192683 19.5723073,38.2186362 20.5299385,37.2787892 C12.476222,35.8447128 9.10909812,30.920789 9.10909812,25.0669017 C9.10909812,22.2338246 10.0441716,19.6183997 11.885638,17.5111163 C10.7213345,14.033301 11.9976749,11.068945 12.1647636,10.6234886 C15.494506,10.3207523 18.95648,13.0057378 19.2235211,13.2172665 C21.12063,12.7101992 23.2791405,12.4331923 25.6944337,12.4331923 C28.1248728,12.4331923 30.2953605,12.7136907 32.2011165,13.2269352 C32.8514249,12.7322223 36.0615574,10.4309749 39.1575047,10.7123865 C39.3226061,11.15274 40.571716,14.054196 39.4759453,17.4799617 C41.3354578,19.5926166 42.279823,22.2198051 42.279823,25.0669017 C42.279823,30.9324988 38.8991644,35.8644798 30.8106445,37.2872762 C32.1614256,38.617522 32.9989098,40.4677266 32.9989098,42.5138826 L32.9989098,48.9679785 C33.0419844,49.4820824 32.9989098,50 33.8631949,50 C44.0182218,46.5792835 51.3316136,36.9780403 51.3316136,25.6685069 C51.3316136,11.4921636 39.840683,0 25.6658605,0 C11.4910917,0 0.000107417977,11.4921636 0.000107417977,25.6685069 L0,25.6683995 Z" id="Shape"></path>
                <text id="GitHub-markdown引擎" font-family="PingFangSC-Regular, PingFang SC" font-size="20" font-weight="normal">
                    <tspan x="61.7654605" y="21">GitHub</tspan>
                    <tspan x="61.7654605" y="49">markdown引擎</tspan>
                </text>
            </g>
            <g id="Group" transform="translate(476.000000, 78.000000)">
                <text id="E" font-family="PingFangSC-Regular, PingFang SC" font-size="28" font-weight="normal" fill="#000000">
                    <tspan x="44.8" y="31.4137931">E</tspan>
                </text>
                <use id="Rectangle" stroke="#CDCED0" mask="url(#mask-3)" stroke-width="2.8" fill="url(#linearGradient-1)" transform="translate(98.000000, 20.500000) scale(-1, 1) translate(-98.000000, -20.500000) " xlink:href="#path-2"></use>
                <text id="E绅士标签构建者" font-family="PingFangSC-Medium, PingFang SC" font-size="16.8" font-weight="400" fill="#000000">
                    <tspan x="40.6" y="26.4827586">E绅士标签构建者</tspan>
                </text>
                <g id="e.h" transform="translate(15.400000, 12.724138)" fill="#000000">
                    <g id="EH">
                        <polygon id="Path-2" points="0 0.0204882841 0 15.4964302 6.46340041 15.4964302 6.46340041 12.9700246 2.56172869 12.9700246 2.56172869 9.07042117 5.16558439 9.07042117 5.16558439 6.51195395 2.61022014 6.51195395 2.61022014 2.62724311 6.4656331 2.62724311 6.4656331 0"></polygon>
                        <polygon id="Path-3" points="10.3551724 0.0504859903 10.3551724 15.5314605 12.9692691 15.5314605 12.9692691 9.06994655 15.5592952 9.06994655 15.5592952 15.4871654 18.160761 15.4871654 18.160761 0 15.5772524 0 15.5772524 6.44612661 12.9815813 6.44612661 12.9815813 0.0127070204"></polygon>
                        <rect id="Rectangle" x="6.43275863" y="6.55616598" width="2.66724137" height="2.65368623"></rect>
                    </g>
                </g>
                <polygon id="Triangle" fill="#000000" transform="translate(180.700000, 22.327586) scale(1, -1) translate(-180.700000, -22.327586) " points="180.7 18.7931034 185.6 25.862069 175.8 25.862069"></polygon>
            </g>
            <g id="Group" transform="translate(476.000000, 254.000000)">
                <text id="E" font-family="PingFangSC-Regular, PingFang SC" font-size="28" font-weight="normal" fill="#000000">
                    <tspan x="44.8" y="31.4137931">E</tspan>
                </text>
                <use id="Rectangle" stroke="#CDCED0" mask="url(#mask-5)" stroke-width="2.8" fill="url(#linearGradient-1)" transform="translate(98.000000, 20.500000) scale(-1, 1) translate(-98.000000, -20.500000) " xlink:href="#path-4"></use>
                <text id="E绅士翻译注射器" font-family="PingFangSC-Medium, PingFang SC" font-size="16.8" font-weight="400" fill="#000000">
                    <tspan x="40.6" y="26.4827586">E绅士翻译注射器</tspan>
                </text>
                <g id="e.h" transform="translate(15.400000, 12.724138)" fill="#000000">
                    <g id="EH">
                        <polygon id="Path-2" points="0 0.0204882841 0 15.4964302 6.46340041 15.4964302 6.46340041 12.9700246 2.56172869 12.9700246 2.56172869 9.07042117 5.16558439 9.07042117 5.16558439 6.51195395 2.61022014 6.51195395 2.61022014 2.62724311 6.4656331 2.62724311 6.4656331 0"></polygon>
                        <polygon id="Path-3" points="10.3551724 0.0504859903 10.3551724 15.5314605 12.9692691 15.5314605 12.9692691 9.06994655 15.5592952 9.06994655 15.5592952 15.4871654 18.160761 15.4871654 18.160761 0 15.5772524 0 15.5772524 6.44612661 12.9815813 6.44612661 12.9815813 0.0127070204"></polygon>
                        <rect id="Rectangle" x="6.43275863" y="6.55616598" width="2.66724137" height="2.65368623"></rect>
                    </g>
                </g>
                <polygon id="Triangle" fill="#000000" transform="translate(180.700000, 22.327586) scale(1, -1) translate(-180.700000, -22.327586) " points="180.7 18.7931034 185.6 25.862069 175.8 25.862069"></polygon>
            </g>
            <path d="M404.5,93 L466.5,93" id="Line" stroke="#979797" stroke-width="2" stroke-linecap="square"></path>
            <path d="M684.5,275 L878.041339,275" id="Line" stroke="#979797" stroke-width="2" stroke-linecap="square"></path>
            <path d="M684,99.4290428 L708.558084,99.4290428 C719.601903,99.4290428 728.554688,90.480449 728.554688,79.427563 L728.554688,67.8879408 C728.554688,56.8414286 737.507007,47.937435 748.553187,48.0003312 L877.70157,48.7356934" id="Line" stroke="#979797" stroke-width="2" stroke-linecap="square"></path>
            <path d="M684,150.449706 L708.558084,150.449706 C719.601903,150.449706 728.554688,141.496284 728.554688,130.454843 L728.554688,120.444569 C728.554688,109.401711 737.507304,100.422546 748.546042,100.389057 L876.787634,100" id="Line" stroke="#979797" stroke-width="2" stroke-linecap="square" transform="translate(780.393817, 125.224853) scale(1, -1) translate(-780.393817, -125.224853) "></path>
            <g id="json-(1)" transform="translate(890.000000, 24.000000)" fill="#000000">
                <path d="M25.0531647,49.934461 C28.3302598,49.9227921 31.5708139,49.2453761 34.5781632,47.9433244 C37.5118127,46.688721 40.19579,44.8785968 42.4740498,42.6440297 C46.4287429,38.8007188 48.969166,33.7341695 49.6833376,28.2660258 C49.995428,25.8504463 49.964219,23.3818114 49.5897105,20.9787154 C49.2776202,18.981337 48.7158575,17.0307721 47.9356315,15.1738343 C47.4355556,14.0036835 46.8406,12.8763993 46.1567163,11.8032582 C43.7255323,7.97703013 40.1989109,4.89981899 36.141736,2.84626426 C34.6911832,2.10719246 33.1765304,1.50133137 31.6164254,1.03614009 L31.6070627,1.03614009 C31.8567351,1.16721807 32.1064074,1.31077964 32.3248706,1.45434116 C32.5745429,1.61038638 32.8242152,1.76018975 33.0551621,1.92247676 C34.2411056,2.72454902 35.3334219,3.64521567 36.3009021,4.69383936 C38.5167438,7.07508896 40.0459867,9.99937583 40.9198397,13.107796 C41.5128115,15.1551089 41.8249019,17.2710817 41.949738,19.3932963 C42.0433651,20.9412646 42.0433651,22.4985956 41.8561109,24.0372012 C41.5440205,26.6806067 40.7013765,29.264715 39.2969697,31.5273703 C38.2636451,33.21226 36.9184246,34.684588 35.3334219,35.8654266 C32.7430718,37.800387 29.3412866,38.9551214 26.0955466,38.1873791 C25.564993,38.0625429 25.0344394,37.8815305 24.5350947,37.6505836 C23.9659345,37.3901528 23.4225769,37.0766772 22.9122247,36.7143125 C21.9472957,36.0689176 21.0756841,35.2939183 20.3218746,34.4110854 C19.4075068,33.3200438 18.6703009,32.0920693 18.1372419,30.7721116 C17.4839384,29.0835448 17.1352408,27.292507 17.1073437,25.4821796 C17.0449256,22.8294114 17.5754792,20.1641595 18.8862588,17.8359653 C19.7601119,16.287997 20.9460553,14.9272829 22.3504621,13.8412084 C22.8185977,13.4729417 23.3179422,13.1483678 23.8172868,12.8425192 L23.8484958,12.8300356 C22.8810157,12.6115723 21.8511174,12.5179452 20.8524282,12.5803633 C19.9785751,12.6427813 19.1359311,12.7988266 18.2932871,13.0797079 C16.9698411,13.5149417 15.7336923,14.1805603 14.6418296,15.0458773 C14.2049031,15.4203857 13.7679766,15.7948942 13.362259,16.2006117 C11.0215812,18.6037077 9.67959253,21.7870295 9.14903892,25.0639785 C8.83694854,27.092566 8.83694854,29.1523625 8.96178467,31.212159 C9.18024795,34.1145996 9.77321968,37.0170401 10.9279541,39.6698084 C11.645762,41.3238874 12.5820331,42.8531303 13.7367675,44.1951189 C15.5156827,46.2549154 17.7627334,47.8465764 20.2594565,48.8452656 C21.6638632,49.4070283 23.161897,49.8127458 24.6599309,49.968791 C24.8159761,50 24.9720212,50 25.0968574,50 L25.0531647,49.934461 Z M18.9424351,49.1074215 C18.5991356,48.9607391 18.2870453,48.7953312 18.0061639,48.6330441 C16.4370709,47.7885326 15.0058328,46.7098421 13.7617348,45.4341177 C11.483475,43.0684727 9.95423213,40.0911304 9.080379,36.9358966 C8.48740728,34.782473 8.17531689,32.5603895 8.05048076,30.3320642 C7.95685366,28.8652394 7.9880627,27.4296236 8.14410786,25.9940079 C8.42498921,23.3724487 9.1740061,20.7820985 10.4847857,18.5350478 C11.4210569,16.8809688 12.7006274,15.4141439 14.1986613,14.2594095 C15.2285595,13.4791835 16.3832939,12.8237938 17.6004464,12.3868672 C19.9642949,11.5275658 22.5495562,11.4945625 24.9345704,12.2932401 C24.9969885,12.2932401 24.9969885,12.2932401 25.0281975,12.3556582 C25.0594065,12.3868672 25.1218246,12.3868672 25.1530336,12.4180763 C25.2466607,12.4492853 25.3714969,12.5117034 25.4963331,12.5741215 C25.9956777,12.8237938 26.4950223,13.1358842 26.9631579,13.4479745 C28.8357001,14.7587541 30.364943,16.5688783 31.3324232,18.6598839 C32.2062763,20.5636352 32.6119937,22.6858498 32.6432028,24.7768554 C32.6744119,27.0239061 32.2686944,29.2709569 31.3012142,31.3307534 C30.1464797,33.7962674 28.1803104,35.8872729 25.8084235,37.2292616 C25.9956777,37.2916796 26.1829319,37.3228887 26.3701861,37.3853068 C26.8383217,37.4789339 27.3064573,37.541352 27.8058019,37.541352 C30.8642876,37.6349791 33.8291463,36.1681543 36.013779,34.1083578 C36.4194964,33.7338493 36.7940049,33.3281318 37.1373043,32.8912053 C37.6054399,32.3294426 38.0423664,31.7676799 38.4168749,31.1747082 C38.9162195,30.3944822 39.321937,29.6142563 39.6964454,28.7716123 C40.164581,27.6480869 40.5390895,26.4933525 40.7575527,25.307409 C41.1632702,23.2164035 41.1944792,21.0941889 41.0696431,19.0031833 C40.7887618,14.7899631 39.6652364,10.576743 37.2309314,7.08133076 C36.856423,6.5507771 36.4819146,6.05143252 36.076197,5.58329692 C35.3895982,4.80307095 34.6405813,4.08526309 33.8603553,3.42987329 C32.9865022,2.71206543 32.0190221,2.05667563 31.0203328,1.52612197 C29.8864161,1.00408577 28.706966,0.587256195 27.4968324,0.280881348 L26.8726517,0.156045215 C26.4342518,0.0985427023 25.993917,0.0569034645 25.5525093,0.0312090332 C24.8482286,-0.000226469515 24.1427025,0.0101948898 23.4396575,0.0624180664 C21.9728327,0.156045166 20.4966452,0.393233887 19.0391831,0.761500537 C12.0483585,2.56538296 5.93138711,7.44023472 2.67628438,13.9005056 C1.63864329,15.9608309 0.894876186,18.1564146 0.466684473,20.4231946 C-0.0326601562,23.0135447 -0.0950782227,25.6787966 0.24822124,28.2878722 C0.497893555,30.4100868 1.02844722,32.5010923 1.87109121,34.4891081 C2.33922681,35.6750515 2.93219849,36.8297859 3.58758833,37.9221022 C5.8658481,41.6359778 9.17400615,44.6632545 12.9815088,46.75426 C14.4171246,47.565695 15.9151583,48.1898758 17.4756103,48.7204294 C17.9437459,48.8764747 18.4118814,49.0325198 18.911226,49.157356 L18.9424351,49.1074215 Z" id="Shape"></path>
            </g>
            <g id="stylish-logo-2" transform="translate(889.000000, 123.000000)">
                <g id="68953F73-98FC-4790-9F9C-9D4FE61F98F0">
                    <g id="Group">
                        <g>
                            <g id="a-link" fill-opacity="0" fill="#FFFFFF">
                                <path d="M0,11.7148438 C0,5.2453125 5.24453125,0 11.7148438,0 L38.2851562,0 C44.7546875,0 50,5.24453125 50,11.7148438 L50,38.2851562 C50,44.7554687 44.7554687,50 38.2851562,50 L11.7148438,50 C5.2453125,50 0,44.7554687 0,38.2851562 L0,11.7148438 L0,11.7148438 Z" id="a"></path>
                            </g>
                            <g id="Clipped">
                                <mask id="mask-7" fill="white">
                                    <use xlink:href="#path-6"></use>
                                </mask>
                                <g id="a"></g>
                                <polygon id="Shape" fill="#2ECC71" mask="url(#mask-7)" points="23.4375 0 23.4375 30.46875 0 30.46875 0 0"></polygon>
                            </g>
                            <g id="Clipped">
                                <mask id="mask-9" fill="white">
                                    <use xlink:href="#path-8"></use>
                                </mask>
                                <g id="a"></g>
                                <polygon id="Shape" fill="#E74C3C" mask="url(#mask-9)" points="50 0 50 16.40625 26.5625 16.40625 26.5625 0"></polygon>
                            </g>
                            <g id="Clipped">
                                <mask id="mask-11" fill="white">
                                    <use xlink:href="#path-10"></use>
                                </mask>
                                <g id="a"></g>
                                <polygon id="Shape" fill="#F39C12" mask="url(#mask-11)" points="23.4375 33.59375 23.4375 50 0 50 0 33.59375"></polygon>
                            </g>
                            <g id="Clipped">
                                <mask id="mask-13" fill="white">
                                    <use xlink:href="#path-12"></use>
                                </mask>
                                <g id="a"></g>
                                <polygon id="Shape" fill="#3498DB" mask="url(#mask-13)" points="50 19.921875 50 50.390625 26.5625 50.390625 26.5625 19.921875"></polygon>
                            </g>
                        </g>
                    </g>
                </g>
            </g>
            <text id="JSON格式数据-方便第三方调用" font-family="PingFangSC-Regular, PingFang SC" font-size="18" font-weight="normal" fill="#2C2C2C">
                <tspan x="950" y="43">JSON格式数据</tspan>
                <tspan x="950" y="68">方便第三方调用</tspan>
            </text>
            <text id="CSS翻译代码-用Stylish加载到E" font-family="PingFangSC-Regular, PingFang SC" font-size="18" font-weight="normal" fill="#2C2C2C">
                <tspan x="950" y="142">CSS翻译代码</tspan>
                <tspan x="950" y="167">用Stylish加载到E站</tspan>
            </text>
            <g id="e.h" transform="translate(890.000000, 249.000000)" fill="#000000">
                <g id="EH">
                    <polygon id="Path-2" points="0 0.0632365664 0 47.8293366 17.0463307 47.8293366 17.0463307 40.0316503 6.75620755 40.0316503 6.75620755 27.9956237 13.6235193 27.9956237 13.6235193 20.0989798 6.88409707 20.0989798 6.88409707 8.10891887 17.0522192 8.10891887 17.0522192 0"></polygon>
                    <polygon id="Path-3" points="27.3103448 0.155823722 27.3103448 47.9374569 34.2046659 47.9374569 34.2046659 27.9941588 41.0355037 27.9941588 41.0355037 47.8007411 47.8965125 47.8007411 47.8965125 0 41.0828635 0 41.0828635 19.8958054 34.2371376 19.8958054 34.2371376 0.0392198945"></polygon>
                    <rect id="Rectangle" x="16.9655173" y="20.2354391" width="7.03448275" height="8.19053489"></rect>
                </g>
            </g>
        </g>
    </g>
</svg>